# xmcd CD database file
# Copyright (C) 1997 Ti Kan
# 
# Track frame offsets:
#     183
#     13273
#     25508
#     38103
#     50890
#     63680
#     75935
#     88678
#     101308
#     113643
#     126103
#     138350
#     150915
#     168253
#     179388
#     189608
#     199988
#     212048
#     221198
#     235058
#     246330
# 
# Disc length: 3445 seconds
# 
# Revision: 1
# Processed by: cddbd v1.4b41PL1 Copyright (c) Steve Scherf et al.
# Submitted via: DiscPlay 4.0.3
# 
DISCID=200d7315
DTITLE=Hank Williams - Vol 1 - I Ain't Got Nothin' But Time
DYEAR=1900
DGENRE=
TTITLE0=Calling You
TTITLE1=Never Again
TTITLE2=Wealth Won't Save Your Soul
TTITLE3=When God Comes And Gathers His Jewels
TTITLE4=I Don't Care (If Tomorrow Never Comes)
TTITLE5=My Love For You (Has Turned To Hate)
TTITLE6=Pan American
TTITLE7=Honky Tonkin'
TTITLE8=Move It On Over
TTITLE9=I Saw The Light
TTITLE10=(Last Night) I Heard You Crying In Your Sleep
TTITLE11=Six More Miles
TTITLE12=Cool Water
TTITLE13=Swing Wide Your Gate Of Love
TTITLE14=Roly Poly
TTITLE15=Tennessee Border
TTITLE16=Old Country Church
TTITLE17=Alone And Forsaken
TTITLE18=Rock My Cradle (Once Again)
TTITLE19=Battle Of Armegeddon
TTITLE20=I Ain't Got Nothin' But Time
EXTD=
EXTT0=
EXTT1=
EXTT2=
EXTT3=
EXTT4=
EXTT5=
EXTT6=
EXTT7=
EXTT8=
EXTT9=
EXTT10=
EXTT11=
EXTT12=
EXTT13=
EXTT14=
EXTT15=
EXTT16=
EXTT17=
EXTT18=
EXTT19=
EXTT20=
PLAYORDER=
